<svg xmlns="http://www.w3.org/2000/svg" viewBox="0 0 232.63 24.6"><defs><style>.cls-1{fill:#fff;}.cls-2{fill:none;stroke:#fff;stroke-miterlimit:10;stroke-width:0.4px;}</style></defs><title>logo-airalabrus</title><g id="Layer_2" data-name="Layer 2"><g id="Слой_2" data-name="Слой 2"><circle class="cls-1" cx="22.36" cy="22.36" r="2.24"/><circle class="cls-1" cx="22.36" cy="2.24" r="2.24"/><circle class="cls-1" cx="22.36" cy="12.3" r="2.24"/><circle class="cls-1" cx="2.24" cy="22.36" r="2.24"/><circle class="cls-1" cx="12.3" cy="22.36" r="2.24"/><circle class="cls-1" cx="12.3" cy="12.44" r="2.24"/><polygon class="cls-2" points="22.36 2.24 22.36 22.36 2.24 22.36 22.36 2.24"/><polyline class="cls-2" points="12.3 12.44 12.3 22.36 22.36 12.44"/><path class="cls-1" d="M56,23.82h-7.6l-1.58-5H38.85l-1.65,5H34.28L42.05.61h6.64Zm-9.93-7.34L43,6.16,39.66,16.48Z"/><path class="cls-1" d="M66.09,23.82H59.54V7.58a51,51,0,0,0,6.55-.42Zm-.2-20.43c0,1.42-1,2.12-3,2.12s-3-.7-3-2.12,1-2.13,3-2.13S65.89,2,65.89,3.39Z"/><path class="cls-1" d="M85.26,10.29A6.62,6.62,0,0,1,85,11.9c-.13.51-.27,1-.42,1.58H80.1q0-.13.42-1.29a4.66,4.66,0,0,0,.26-1.32c0-.69-.27-1-.81-1a.94.94,0,0,0-.8.52,6.58,6.58,0,0,0-1,3.74v9.73H71.72V7.58a46,46,0,0,0,6.48-.42V9.83q1.6-2.67,3.9-2.67C84.2,7.16,85.26,8.2,85.26,10.29Z"/><path class="cls-1" d="M107.3,23.22a14.69,14.69,0,0,1-4.68.83c-2.17,0-3.54-.61-4.12-1.84a5.74,5.74,0,0,1-4.61,1.84q-5.72,0-5.71-4.74,0-3.52,5.14-5.06Q98,12.84,98,11c0-1.66-.89-2.49-2.69-2.49-2,0-3.08.8-3.08,2.41a5.68,5.68,0,0,0,.46,2l-3.2-.55A9.17,9.17,0,0,1,89.41,11c0-2.57,2.58-3.86,7.76-3.86a11.55,11.55,0,0,1,5.07.87,4.32,4.32,0,0,1,2.35,4.22V20.6c0,1,.37,1.48,1.13,1.48a2.42,2.42,0,0,0,1-.32ZM98,18.67V14.06a5.94,5.94,0,0,1-1.34,1,3.74,3.74,0,0,0-2.07,3.5c0,2.12.48,3.18,1.43,3.18Q98,21.79,98,18.67Z"/><path class="cls-1" d="M117,23.82h-6.55v-22c1.14,0,3.33-.11,6.55-.33Z"/><path class="cls-1" d="M140.51,23.22a14.63,14.63,0,0,1-4.67.83c-2.17,0-3.55-.61-4.13-1.84a5.73,5.73,0,0,1-4.61,1.84q-5.7,0-5.7-4.74,0-3.52,5.14-5.06,4.72-1.41,4.72-3.21c0-1.66-.9-2.49-2.69-2.49-2,0-3.08.8-3.08,2.41a5.86,5.86,0,0,0,.45,2l-3.19-.55a9.25,9.25,0,0,1-.13-1.42q0-3.86,7.77-3.86a11.5,11.5,0,0,1,5.06.87,4.32,4.32,0,0,1,2.36,4.22V20.6c0,1,.37,1.48,1.12,1.48a2.38,2.38,0,0,0,1-.32Zm-9.25-4.55V14.06a6.17,6.17,0,0,1-1.34,1,3.75,3.75,0,0,0-2.08,3.5q0,3.18,1.44,3.18Q131.26,21.79,131.26,18.67Z"/><path class="cls-1" d="M160.52,15.15q0,9-7.61,9a7.73,7.73,0,0,1-6.06-3.06l-1.64,2.7h-1.58v-22q1.1,0,6.54-.36V9.32a5.07,5.07,0,0,1,4-2.16Q160.52,7.16,160.52,15.15Zm-6.41-.8a16.39,16.39,0,0,0-.26-2.68q-.36-2.16-1.74-2.16-2.16,0-2.16,5.68c0,4.42.72,6.64,2.16,6.64,1.09,0,1.7-1.16,1.8-3.49C154,15.7,154.11,14.37,154.11,14.35Z"/><path class="cls-1" d="M190.57,23.82h-8.32a11.2,11.2,0,0,1-.8-4V16.67a4.56,4.56,0,0,0-.85-3.1,3.19,3.19,0,0,0-1.94-.83,18.33,18.33,0,0,0-2.18-.07V23.82h-7.57V.61h11.22a14.58,14.58,0,0,1,6.25,1.23q3.45,1.58,3.45,4.8,0,4.29-5.61,5.48a18.32,18.32,0,0,1,2.51,1,4,4,0,0,1,2,2.42,11.8,11.8,0,0,1,.34,3.09,10.24,10.24,0,0,0,.47,3.26A5.91,5.91,0,0,0,190.57,23.82ZM182.38,6.74q0-4-4.41-4h-1.49v8H178Q182.38,10.77,182.38,6.74Z"/><path class="cls-1" d="M211.89,23.82h-6.55V21.25a7.12,7.12,0,0,1-5.78,2.9q-4.69,0-4.69-4.19V7.58q3.9-.17,6.48-.42V19.8c0,1.09.36,1.64,1.08,1.64q2.91,0,2.91-5.67V7.58c2.59-.11,4.78-.25,6.55-.42Z"/><path class="cls-1" d="M232.63,18.73q0,5.49-7.74,5.48-8.13,0-8.12-5.48l3.35-.64a3.19,3.19,0,0,0-.13,1,3.06,3.06,0,0,0,1.48,2.58,5.24,5.24,0,0,0,3,.9c1.52,0,2.29-.6,2.29-1.81q0-1.12-3.78-2.64c-3.8-1.5-5.7-3.42-5.7-5.74A4.43,4.43,0,0,1,220,8.32a11.07,11.07,0,0,1,5.12-1.13c4.07,0,6.29,1.53,6.68,4.58l-3.13.48q0-3.64-3.77-3.64c-1.53,0-2.29.57-2.29,1.71q0,1,2.61,2.13a42.13,42.13,0,0,1,4.8,2.32C231.76,15.88,232.63,17.21,232.63,18.73Z"/></g></g></svg>