<?xml version="1.0" encoding="utf-8"?><svg width="135" height="40" viewBox="0 0 135 40" xmlns="http://www.w3.org/2000/svg" xmlns:xlink="http://www.w3.org/1999/xlink"><svg viewBox="4907.917 161 28.361 16.311" width="28.36" height="16.31" id="check" xmlns="http://www.w3.org/2000/svg"><defs><style>.acls-1{fill:#30b900}</style></defs><g id="adouble-tick-indicator" transform="translate(4907.917 34.775)"><g id="adone-all" transform="translate(0 126.225)"><path id="aPath_450" data-name="Path 450" class="acls-1" d="M21.423 127.929l-1.7-1.7-7.668 7.668 1.7 1.7zm5.112-1.7l-12.781 12.9-5.112-5.112-1.7 1.7 6.816 6.816 14.606-14.606zM0 135.719l6.816 6.816 1.7-1.7-6.816-6.82z" transform="translate(0 -126.225)"/></g></g></svg><svg viewBox="0 0 25.176 20.141" width="25.18" height="20.14" id="credit-card" x="29" xmlns="http://www.w3.org/2000/svg"><defs><style>.bcls-1{fill:#333}</style></defs><g id="bcredit-card" transform="translate(0 -54.821)"><g id="bGroup_1726" data-name="Group 1726" transform="translate(0 54.821)"><path id="bPath_2061" data-name="Path 2061" class="bcls-1" d="M24.56 55.437a2.02 2.02 0 0 0-1.482-.616H2.1a2.021 2.021 0 0 0-1.482.616A2.02 2.02 0 0 0 0 56.919v15.944a2.02 2.02 0 0 0 .616 1.482 2.021 2.021 0 0 0 1.482.616h20.98a2.1 2.1 0 0 0 2.1-2.1V56.919a2.02 2.02 0 0 0-.618-1.482zM23.5 72.864a.425.425 0 0 1-.419.419H2.1a.425.425 0 0 1-.42-.42v-7.972H23.5v7.972zm0-13.008H1.678v-2.937A.425.425 0 0 1 2.1 56.5h20.98a.425.425 0 0 1 .419.419v2.937z" transform="translate(0 -54.821)"/><path id="bRectangle_1329" data-name="Rectangle 1329" class="bcls-1" transform="translate(3.357 15.105)" d="M0 0h3.357v1.679H0z"/><path id="bRectangle_1330" data-name="Rectangle 1330" class="bcls-1" transform="translate(8.392 15.105)" d="M0 0h5.035v1.679H0z"/></g></g></svg><svg id="hamburger" viewBox="0 0 40 40" width="40" height="40" x="55" xmlns="http://www.w3.org/2000/svg"><style>.cst0{fill:#fff}</style><title>hamburger</title><g id="cLayer_2_1_"><g id="cСлой_2"><path class="cst0" d="M40 40H0V0h40v40zM.9 39.1H39V.9H.9v38.2z"/><path class="cst0" d="M7.5 11.1h24.9v.9H7.5zm0 8.4h24.9v.9H7.5zm0 8.5h24.9v.9H7.5z"/></g></g></svg><svg id="hamburger-close" viewBox="0 0 40 40" width="40" height="40" x="95" xmlns="http://www.w3.org/2000/svg"><style>.dst0{fill:#fff}</style><title>hamburger</title><g id="dLayer_2_1_"><g id="dСлой_2"><path class="dst0" d="M40 40H0V0h40v40zM.9 39.1H39V.9H.9v38.2z"/><path transform="rotate(-45.001 20 20)" class="dst0" d="M7.2 19.5h25.5v1H7.2z"/><path transform="rotate(-45.001 20 20)" class="dst0" d="M19.5 7.2h1v25.5h-1z"/></g></g></svg></svg>